<svg width="18" height="18" viewBox="0 0 18 18" fill="none" xmlns="http://www.w3.org/2000/svg">
<path d="M9.63117 5.82835V0.912874C9.63117 0.647594 9.72078 0.429129 9.9 0.257477C10.0792 0.0858258 10.2935 0 10.5429 0H17.0883C17.3532 0 17.5714 0.0858258 17.7429 0.257477C17.9143 0.429129 18 0.647594 18 0.912874V5.82835C18 6.09363 17.9143 6.31599 17.7429 6.49545C17.5714 6.6749 17.3532 6.76463 17.0883 6.76463H10.5429C10.2935 6.76463 10.0792 6.6749 9.9 6.49545C9.72078 6.31599 9.63117 6.09363 9.63117 5.82835ZM0 9.03511V0.912874C0 0.647594 0.0857144 0.429129 0.257143 0.257477C0.428572 0.0858258 0.646753 0 0.911688 0H7.45714C7.70649 0 7.92078 0.0858258 8.1 0.257477C8.27922 0.429129 8.36883 0.647594 8.36883 0.912874V9.03511C8.36883 9.30039 8.27922 9.52276 8.1 9.70221C7.92078 9.88166 7.70649 9.97139 7.45714 9.97139H0.911688C0.646753 9.97139 0.428572 9.88166 0.257143 9.70221C0.0857144 9.52276 0 9.30039 0 9.03511ZM9.63117 17.0637V8.94148C9.63117 8.6762 9.72078 8.45774 9.9 8.28609C10.0792 8.11443 10.2935 8.02861 10.5429 8.02861H17.0883C17.3532 8.02861 17.5714 8.11443 17.7429 8.28609C17.9143 8.45774 18 8.6762 18 8.94148V17.0637C18 17.329 17.9143 17.5514 17.7429 17.7308C17.5714 17.9103 17.3532 18 17.0883 18H10.5429C10.2935 18 10.0792 17.9103 9.9 17.7308C9.72078 17.5514 9.63117 17.329 9.63117 17.0637ZM0 17.0637V12.1482C0 11.883 0.0857144 11.6645 0.257143 11.4928C0.428572 11.3212 0.646753 11.2354 0.911688 11.2354H7.45714C7.70649 11.2354 7.92078 11.3212 8.1 11.4928C8.27922 11.6645 8.36883 11.883 8.36883 12.1482V17.0637C8.36883 17.329 8.27922 17.5514 8.1 17.7308C7.92078 17.9103 7.70649 18 7.45714 18H0.911688C0.646753 18 0.428572 17.9103 0.257143 17.7308C0.0857144 17.5514 0 17.329 0 17.0637Z" fill="white"/>
</svg>
