<svg width="18" height="18" viewBox="0 0 18 18" fill="none" xmlns="http://www.w3.org/2000/svg">
<path d="M13.0161 13.0254C12.8226 12.8331 12.7258 12.6048 12.7258 12.3405C12.7258 12.0761 12.8226 11.8558 13.0161 11.6796L14.7339 9.9733H7.42742C7.16935 9.9733 6.94758 9.88118 6.7621 9.69693C6.57661 9.51268 6.48387 9.28438 6.48387 9.01202C6.48387 8.73965 6.57661 8.51135 6.7621 8.3271C6.94758 8.14286 7.16935 8.05073 7.42742 8.05073H14.6855L12.9435 6.32043C12.7661 6.16021 12.6774 5.94793 12.6774 5.68358C12.6774 5.41923 12.7742 5.19092 12.9677 4.99866C13.1613 4.82243 13.3952 4.73431 13.6694 4.73431C13.9435 4.73431 14.1694 4.83044 14.3468 5.0227L17.7339 8.36315C17.8306 8.45928 17.8992 8.56742 17.9395 8.68758C17.9798 8.80774 18 8.9239 18 9.03605C18 9.16422 17.9798 9.28438 17.9395 9.39653C17.8992 9.50868 17.8306 9.61282 17.7339 9.70895L14.371 13.0494C14.1935 13.2096 13.9758 13.2897 13.7177 13.2897C13.4597 13.2897 13.2258 13.2016 13.0161 13.0254ZM1.91129 18C1.39516 18 0.947581 17.8118 0.568548 17.4352C0.189516 17.0587 0 16.6142 0 16.1015V1.92256C0 1.39386 0.189516 0.941255 0.568548 0.564753C0.947581 0.188251 1.39516 0 1.91129 0H8.10484C8.3629 0 8.58468 0.0961281 8.77016 0.288384C8.95564 0.480641 9.04839 0.712951 9.04839 0.985314C9.04839 1.24166 8.95564 1.46195 8.77016 1.6462C8.58468 1.83044 8.3629 1.92256 8.10484 1.92256H1.91129V16.1015H8.10484C8.3629 16.1015 8.58468 16.1936 8.77016 16.3778C8.95564 16.5621 9.04839 16.7904 9.04839 17.0627C9.04839 17.3191 8.95564 17.5394 8.77016 17.7236C8.58468 17.9079 8.3629 18 8.10484 18H1.91129Z" fill="white"/>
</svg>
