<svg width="18" height="18" viewBox="0 0 18 18" fill="none" xmlns="http://www.w3.org/2000/svg">
<path d="M10.5145 0H7.46339C7.2423 0 7.04331 0.0651398 6.86644 0.195417C6.68956 0.325693 6.58638 0.499397 6.5569 0.716526L6.22526 2.82268C5.98943 2.90953 5.73517 3.02895 5.46248 3.18094C5.1898 3.33293 4.95765 3.48854 4.76603 3.64777L2.79829 2.73583C2.59194 2.6345 2.3819 2.62002 2.16817 2.6924C1.95445 2.76478 1.78862 2.90229 1.67071 3.10495L0.123044 5.81906C0.00512688 6.00724 -0.0280374 6.20627 0.0235514 6.41616C0.0751402 6.62606 0.189373 6.80338 0.366248 6.94813L2.20133 8.25091C2.17186 8.35223 2.15343 8.47527 2.14606 8.62002C2.13869 8.76478 2.13501 8.88782 2.13501 8.98914C2.13501 9.09047 2.13869 9.21351 2.14606 9.35826C2.15343 9.50302 2.17186 9.62606 2.20133 9.72738L0.366248 11.0519C0.189373 11.1821 0.0751402 11.3559 0.0235514 11.573C-0.0280374 11.7901 0.00512688 11.9855 0.123044 12.1592L1.67071 14.8733C1.78862 15.0615 1.95445 15.1918 2.16817 15.2642C2.3819 15.3365 2.59194 15.3293 2.79829 15.2425L4.78814 14.3305C4.97976 14.4897 5.20822 14.6417 5.47354 14.7865C5.73885 14.9312 5.98943 15.0398 6.22526 15.1122L6.5569 17.2618C6.58638 17.4789 6.68956 17.6562 6.86644 17.7937C7.04331 17.9312 7.2423 18 7.46339 18H10.5145C10.7356 18 10.9346 17.9312 11.1115 17.7937C11.2883 17.6562 11.3915 17.4789 11.421 17.2618L11.7526 15.1339C11.9885 15.047 12.2427 14.9349 12.5154 14.7973C12.7881 14.6598 13.0202 14.5042 13.2119 14.3305L15.1796 15.2425C15.386 15.3293 15.596 15.3402 15.8097 15.275C16.0234 15.2099 16.1893 15.076 16.3072 14.8733L17.877 12.1809C17.9949 11.9928 18.028 11.7901 17.9764 11.573C17.9249 11.3559 17.8033 11.1821 17.6116 11.0519L15.7766 9.77081C15.7913 9.65501 15.806 9.52473 15.8208 9.37998C15.8355 9.23522 15.8429 9.10495 15.8429 8.98914C15.8429 8.87334 15.8355 8.74668 15.8208 8.60917C15.806 8.47165 15.7913 8.34499 15.7766 8.22919L17.6116 6.94813C17.7885 6.80338 17.9028 6.62606 17.9543 6.41616C18.0059 6.20627 17.9801 6.00724 17.877 5.81906L16.3072 3.10495C16.1893 2.90229 16.0234 2.76478 15.8097 2.6924C15.596 2.62002 15.386 2.6345 15.1796 2.73583L13.1897 3.64777C12.9981 3.48854 12.7734 3.32931 12.5154 3.17008C12.2575 3.01086 12.0032 2.89505 11.7526 2.82268L11.421 0.716526C11.3915 0.499397 11.2883 0.325693 11.1115 0.195417C10.9346 0.0651398 10.7356 0 10.5145 0ZM8.96684 6.16647C9.76278 6.16647 10.4408 6.4415 11.0009 6.99156C11.561 7.54162 11.8411 8.20748 11.8411 8.98914C11.8411 9.77081 11.561 10.4367 11.0009 10.9867C10.4408 11.5368 9.76278 11.8118 8.96684 11.8118C8.17089 11.8118 7.49287 11.5368 6.93276 10.9867C6.37266 10.4367 6.0926 9.77081 6.0926 8.98914C6.0926 8.20748 6.37266 7.54162 6.93276 6.99156C7.49287 6.4415 8.17089 6.16647 8.96684 6.16647Z" fill="white"/>
</svg>
