<svg width="16" height="18" viewBox="0 0 16 18" fill="none" xmlns="http://www.w3.org/2000/svg">
<path d="M4.12283 10.8565C3.85225 10.8565 3.62439 10.7624 3.43925 10.5742C3.25412 10.386 3.16155 10.1544 3.16155 9.87937C3.16155 9.60434 3.25412 9.36912 3.43925 9.1737C3.62439 8.97829 3.85225 8.88058 4.12283 8.88058C4.39341 8.88058 4.62127 8.97829 4.80641 9.1737C4.99154 9.36912 5.08411 9.60434 5.08411 9.87937C5.08411 10.1544 4.99154 10.386 4.80641 10.5742C4.62127 10.7624 4.39341 10.8565 4.12283 10.8565ZM8.0534 10.8565C7.78282 10.8565 7.55496 10.7624 7.36983 10.5742C7.18469 10.386 7.09212 10.1544 7.09212 9.87937C7.09212 9.60434 7.18469 9.36912 7.36983 9.1737C7.55496 8.97829 7.78282 8.88058 8.0534 8.88058C8.32399 8.88058 8.55185 8.97829 8.73698 9.1737C8.92212 9.36912 9.01469 9.60434 9.01469 9.87937C9.01469 10.1544 8.92212 10.386 8.73698 10.5742C8.55185 10.7624 8.32399 10.8565 8.0534 10.8565ZM11.8344 10.8565C11.5639 10.8565 11.336 10.7624 11.1509 10.5742C10.9657 10.386 10.8732 10.1544 10.8732 9.87937C10.8732 9.60434 10.9657 9.36912 11.1509 9.1737C11.336 8.97829 11.5639 8.88058 11.8344 8.88058C12.105 8.88058 12.3329 8.97829 12.518 9.1737C12.7032 9.36912 12.7957 9.60434 12.7957 9.87937C12.7957 10.1544 12.7032 10.386 12.518 10.5742C12.3329 10.7624 12.105 10.8565 11.8344 10.8565ZM1.68758 18C1.23186 18 0.836671 17.8299 0.502003 17.4897C0.167334 17.1496 0 16.7479 0 16.2847V3.03981C0 2.56212 0.167334 2.1532 0.502003 1.81303C0.836671 1.47286 1.23186 1.30277 1.68758 1.30277H2.96929V0H4.57143V1.30277H11.4072V0H13.0093V1.30277H14.2911C14.761 1.30277 15.1633 1.47286 15.498 1.81303C15.8327 2.1532 16 2.56212 16 3.03981V16.2847C16 16.7479 15.8327 17.1496 15.498 17.4897C15.1633 17.8299 14.761 18 14.2911 18H1.68758ZM1.68758 16.2847H14.2911V7.05669H1.68758V16.2847Z" fill="#1773BC"/>
</svg>
