<svg width="18" height="18" viewBox="0 0 18 18" fill="none" xmlns="http://www.w3.org/2000/svg">
<path d="M8.98655 8.73451C7.69507 8.73451 6.63677 8.32743 5.81166 7.51327C4.98655 6.69912 4.57399 5.65487 4.57399 4.38053C4.57399 3.0885 4.98655 2.0354 5.81166 1.22124C6.63677 0.40708 7.69507 0 8.98655 0C10.278 0 11.3408 0.40708 12.1749 1.22124C13.009 2.0354 13.426 3.0885 13.426 4.38053C13.426 5.65487 13.009 6.69912 12.1749 7.51327C11.3408 8.32743 10.278 8.73451 8.98655 8.73451ZM2.12556 18C1.53363 18 1.03139 17.7965 0.618834 17.3894C0.206278 16.9823 0 16.4867 0 15.9027V15.1062C0 14.3805 0.188341 13.7478 0.565023 13.208C0.941704 12.6681 1.43498 12.2566 2.04484 11.9735C3.26457 11.4248 4.43946 11.0177 5.56951 10.7522C6.69955 10.4867 7.83857 10.354 8.98655 10.354C10.1525 10.354 11.296 10.4912 12.417 10.7655C13.5381 11.0398 14.6996 11.4425 15.9013 11.9735C16.5291 12.2389 17.0359 12.6416 17.4215 13.1814C17.8072 13.7212 18 14.3628 18 15.1062V15.9027C18 16.4867 17.7937 16.9823 17.3812 17.3894C16.9686 17.7965 16.4574 18 15.8475 18H2.12556Z" fill="#1773BC"/>
<circle cx="14" cy="14" r="4" fill="white"/>
<path d="M14.2967 16.7689C14.2126 16.7689 14.1396 16.7397 14.0778 16.6812C14.0159 16.6228 13.985 16.5522 13.985 16.4694C13.985 16.4206 13.9936 16.3756 14.011 16.3342C14.0283 16.2928 14.0567 16.2526 14.0963 16.2136L15.4251 14.913L15.2692 14.7596L13.9404 16.0675C13.9008 16.1016 13.8613 16.1259 13.8217 16.1406C13.7821 16.1552 13.7375 16.1625 13.688 16.1625C13.6089 16.1625 13.5383 16.1345 13.4765 16.0784C13.4146 16.0224 13.3837 15.953 13.3837 15.8702C13.3837 15.8118 13.3911 15.7643 13.406 15.7277C13.4208 15.6912 13.448 15.6559 13.4876 15.6218L14.8089 14.3139L14.6531 14.1604L13.3466 15.4391C13.3169 15.4732 13.281 15.4988 13.2389 15.5158C13.1969 15.5329 13.1486 15.5414 13.0942 15.5414C13.015 15.5414 12.9445 15.511 12.8826 15.4501C12.8208 15.3892 12.7898 15.3198 12.7898 15.2418C12.7898 15.1931 12.7985 15.1493 12.8158 15.1103C12.8331 15.0713 12.8591 15.0348 12.8938 15.0007L14.2002 13.7074L14.0444 13.554L12.7453 14.8473C12.7156 14.8765 12.6785 14.8984 12.6339 14.913C12.5894 14.9276 12.5399 14.935 12.4855 14.935C12.4014 14.935 12.3308 14.9069 12.2739 14.8509C12.217 14.7949 12.1886 14.7279 12.1886 14.65C12.1886 14.6013 12.1984 14.5538 12.2182 14.5075C12.238 14.4612 12.2653 14.4211 12.2999 14.387L13.9256 12.7868L14.7421 13.5905C14.8164 13.6636 14.8894 13.7208 14.9611 13.7622C15.0329 13.8036 15.1281 13.8243 15.2469 13.8243C15.4251 13.8243 15.5711 13.7708 15.6849 13.6636C15.7987 13.5564 15.8556 13.4103 15.8556 13.2252C15.8556 13.1326 15.8371 13.0523 15.7999 12.9841C15.7628 12.9159 15.7072 12.8428 15.6329 12.7649L14.4378 11.5885L14.5194 11.5008C14.6085 11.418 14.71 11.3522 14.8238 11.3035C14.9376 11.2548 15.0613 11.2305 15.195 11.2305C15.3286 11.2305 15.4535 11.2548 15.5698 11.3035C15.6861 11.3522 15.7938 11.4229 15.8927 11.5154L17.0582 12.6699C17.1671 12.777 17.2487 12.8952 17.3031 13.0243C17.3576 13.1533 17.3848 13.3007 17.3848 13.4663C17.3848 13.6027 17.3551 13.7342 17.2957 13.8609C17.2363 13.9875 17.1572 14.102 17.0582 14.2043L14.5566 16.6666C14.512 16.7105 14.47 16.7385 14.4304 16.7507C14.3908 16.7628 14.3462 16.7689 14.2967 16.7689ZM11.9436 14.4235L11.513 13.9997C11.424 13.9218 11.3547 13.8268 11.3052 13.7147C11.2557 13.6027 11.231 13.4785 11.231 13.3421C11.231 13.196 11.2557 13.0644 11.3052 12.9475C11.3547 12.8306 11.424 12.7308 11.513 12.648L12.6562 11.5154C12.7403 11.4326 12.8381 11.3644 12.9494 11.3108C13.0608 11.2573 13.1808 11.2305 13.3095 11.2305C13.4629 11.2305 13.5965 11.2524 13.7103 11.2962C13.8241 11.3401 13.933 11.4131 14.0369 11.5154L15.4696 12.9183C15.529 12.9768 15.5711 13.0316 15.5958 13.0827C15.6206 13.1339 15.6329 13.1814 15.6329 13.2252C15.6329 13.3372 15.5958 13.4298 15.5216 13.5028C15.4473 13.5759 15.3533 13.6124 15.2395 13.6124C15.19 13.6124 15.1356 13.5978 15.0762 13.5686C15.0168 13.5394 14.9574 13.4955 14.898 13.4371L13.9256 12.4726L11.9436 14.4235Z" fill="#1773BC"/>
</svg>
