<svg width="18" height="18" viewBox="0 0 18 18" fill="none" xmlns="http://www.w3.org/2000/svg">
<path d="M8.98655 8.73451C7.69507 8.73451 6.63677 8.32743 5.81166 7.51327C4.98655 6.69912 4.57399 5.65487 4.57399 4.38053C4.57399 3.0885 4.98655 2.0354 5.81166 1.22124C6.63677 0.40708 7.69507 0 8.98655 0C10.278 0 11.3408 0.40708 12.1749 1.22124C13.009 2.0354 13.426 3.0885 13.426 4.38053C13.426 5.65487 13.009 6.69912 12.1749 7.51327C11.3408 8.32743 10.278 8.73451 8.98655 8.73451ZM2.12556 18C1.53363 18 1.03139 17.7965 0.618834 17.3894C0.206278 16.9823 0 16.4867 0 15.9027V15.1062C0 14.3805 0.188341 13.7478 0.565023 13.208C0.941704 12.6681 1.43498 12.2566 2.04484 11.9735C3.26457 11.4248 4.43946 11.0177 5.56951 10.7522C6.69955 10.4867 7.83857 10.354 8.98655 10.354C10.1525 10.354 11.296 10.4912 12.417 10.7655C13.5381 11.0398 14.6996 11.4425 15.9013 11.9735C16.5291 12.2389 17.0359 12.6416 17.4215 13.1814C17.8072 13.7212 18 14.3628 18 15.1062V15.9027C18 16.4867 17.7937 16.9823 17.3812 17.3894C16.9686 17.7965 16.4574 18 15.8475 18H2.12556Z" fill="white"/>
<circle cx="14" cy="14" r="4" fill="#1773BC"/>
<path d="M14.2967 16.7692C14.2126 16.7692 14.1396 16.74 14.0778 16.6816C14.0159 16.6231 13.985 16.5525 13.985 16.4697C13.985 16.4209 13.9936 16.3759 14.011 16.3345C14.0283 16.2931 14.0567 16.2529 14.0963 16.2139L15.4251 14.9133L15.2692 14.7599L13.9404 16.0678C13.9008 16.1019 13.8613 16.1262 13.8217 16.1409C13.7821 16.1555 13.7375 16.1628 13.688 16.1628C13.6089 16.1628 13.5383 16.1348 13.4765 16.0788C13.4146 16.0227 13.3837 15.9533 13.3837 15.8705C13.3837 15.8121 13.3911 15.7646 13.406 15.728C13.4208 15.6915 13.448 15.6562 13.4876 15.6221L14.8089 14.3142L14.6531 14.1608L13.3466 15.4394C13.3169 15.4735 13.281 15.4991 13.2389 15.5161C13.1969 15.5332 13.1486 15.5417 13.0942 15.5417C13.015 15.5417 12.9445 15.5113 12.8826 15.4504C12.8208 15.3895 12.7898 15.3201 12.7898 15.2421C12.7898 15.1934 12.7985 15.1496 12.8158 15.1106C12.8331 15.0717 12.8591 15.0351 12.8938 15.001L14.2002 13.7077L14.0444 13.5543L12.7453 14.8476C12.7156 14.8768 12.6785 14.8987 12.6339 14.9133C12.5894 14.928 12.5399 14.9353 12.4855 14.9353C12.4014 14.9353 12.3308 14.9073 12.2739 14.8512C12.217 14.7952 12.1886 14.7282 12.1886 14.6503C12.1886 14.6016 12.1984 14.5541 12.2182 14.5078C12.238 14.4615 12.2653 14.4214 12.2999 14.3873L13.9256 12.7871L14.7421 13.5908C14.8164 13.6639 14.8894 13.7211 14.9611 13.7625C15.0329 13.8039 15.1281 13.8246 15.2469 13.8246C15.4251 13.8246 15.5711 13.7711 15.6849 13.6639C15.7987 13.5567 15.8556 13.4106 15.8556 13.2255C15.8556 13.1329 15.8371 13.0526 15.7999 12.9844C15.7628 12.9162 15.7072 12.8431 15.6329 12.7652L14.4378 11.5888L14.5194 11.5011C14.6085 11.4183 14.71 11.3526 14.8238 11.3038C14.9376 11.2551 15.0613 11.2308 15.195 11.2308C15.3286 11.2308 15.4535 11.2551 15.5698 11.3038C15.6861 11.3526 15.7938 11.4232 15.8927 11.5157L17.0582 12.6702C17.1671 12.7774 17.2487 12.8955 17.3031 13.0246C17.3576 13.1536 17.3848 13.301 17.3848 13.4666C17.3848 13.603 17.3551 13.7345 17.2957 13.8612C17.2363 13.9878 17.1572 14.1023 17.0582 14.2046L14.5566 16.6669C14.512 16.7108 14.47 16.7388 14.4304 16.751C14.3908 16.7631 14.3462 16.7692 14.2967 16.7692ZM11.9436 14.4238L11.513 14C11.424 13.9221 11.3547 13.8271 11.3052 13.715C11.2557 13.603 11.231 13.4788 11.231 13.3424C11.231 13.1963 11.2557 13.0647 11.3052 12.9478C11.3547 12.8309 11.424 12.7311 11.513 12.6483L12.6562 11.5157C12.7403 11.4329 12.8381 11.3647 12.9494 11.3111C13.0608 11.2576 13.1808 11.2308 13.3095 11.2308C13.4629 11.2308 13.5965 11.2527 13.7103 11.2965C13.8241 11.3404 13.933 11.4134 14.0369 11.5157L15.4696 12.9186C15.529 12.9771 15.5711 13.0319 15.5958 13.083C15.6206 13.1342 15.6329 13.1817 15.6329 13.2255C15.6329 13.3375 15.5958 13.4301 15.5216 13.5032C15.4473 13.5762 15.3533 13.6128 15.2395 13.6128C15.19 13.6128 15.1356 13.5981 15.0762 13.5689C15.0168 13.5397 14.9574 13.4958 14.898 13.4374L13.9256 12.4729L11.9436 14.4238Z" fill="white"/>
</svg>
