<svg width="18" height="18" viewBox="0 0 18 18" fill="none" xmlns="http://www.w3.org/2000/svg">
<path d="M8.98655 8.73451C7.69507 8.73451 6.63677 8.32743 5.81166 7.51327C4.98655 6.69912 4.57399 5.65487 4.57399 4.38053C4.57399 3.0885 4.98655 2.0354 5.81166 1.22124C6.63677 0.40708 7.69507 0 8.98655 0C10.278 0 11.3408 0.40708 12.1749 1.22124C13.009 2.0354 13.426 3.0885 13.426 4.38053C13.426 5.65487 13.009 6.69912 12.1749 7.51327C11.3408 8.32743 10.278 8.73451 8.98655 8.73451ZM2.12556 18C1.53363 18 1.03139 17.7965 0.618834 17.3894C0.206278 16.9823 0 16.4867 0 15.9027V15.1062C0 14.3805 0.188341 13.7478 0.565023 13.208C0.941704 12.6681 1.43498 12.2566 2.04484 11.9735C3.26457 11.4248 4.43946 11.0177 5.56951 10.7522C6.69955 10.4867 7.83857 10.354 8.98655 10.354C10.1525 10.354 11.296 10.4912 12.417 10.7655C13.5381 11.0398 14.6996 11.4425 15.9013 11.9735C16.5291 12.2389 17.0359 12.6416 17.4215 13.1814C17.8072 13.7212 18 14.3628 18 15.1062V15.9027C18 16.4867 17.7937 16.9823 17.3812 17.3894C16.9686 17.7965 16.4574 18 15.8475 18H2.12556Z" fill="white"/>
</svg>
