<svg width="17" height="18" viewBox="0 0 17 18" fill="none" xmlns="http://www.w3.org/2000/svg">
<path d="M3.12147 18C2.60923 18 2.16502 17.8142 1.78884 17.4427C1.41266 17.0711 1.22458 16.6324 1.22458 16.1265V2.84585H0.960452C0.688324 2.84585 0.460216 2.75494 0.27613 2.57312C0.0920432 2.3913 0 2.16601 0 1.89723C0 1.62846 0.0920432 1.40316 0.27613 1.22134C0.460216 1.03953 0.688324 0.948617 0.960452 0.948617H5.11441C5.11441 0.679842 5.20645 0.454545 5.39054 0.272727C5.57462 0.090909 5.80273 0 6.07486 0H10.9251C11.1973 0 11.4294 0.0948616 11.6215 0.284585C11.8136 0.474308 11.9096 0.695652 11.9096 0.948617H16.0395C16.3117 0.948617 16.5398 1.03953 16.7239 1.22134C16.908 1.40316 17 1.62846 17 1.89723C17 2.16601 16.908 2.3913 16.7239 2.57312C16.5398 2.75494 16.3117 2.84585 16.0395 2.84585H15.7754V16.1265C15.7754 16.6324 15.5873 17.0711 15.2112 17.4427C14.835 17.8142 14.3908 18 13.8785 18H3.12147ZM5.61864 13.3755C5.61864 13.5968 5.69868 13.7866 5.85876 13.9447C6.01883 14.1028 6.21092 14.1818 6.43503 14.1818C6.67514 14.1818 6.87524 14.1028 7.03531 13.9447C7.19539 13.7866 7.27542 13.5968 7.27542 13.3755V5.57312C7.27542 5.33597 7.19138 5.13439 7.0233 4.96838C6.85523 4.80237 6.65913 4.71937 6.43503 4.71937C6.19492 4.71937 5.99882 4.80237 5.84675 4.96838C5.69468 5.13439 5.61864 5.33597 5.61864 5.57312V13.3755ZM9.72458 13.3755C9.72458 13.5968 9.80862 13.7866 9.9767 13.9447C10.1448 14.1028 10.3409 14.1818 10.565 14.1818C10.8051 14.1818 11.0052 14.1028 11.1653 13.9447C11.3253 13.7866 11.4054 13.5968 11.4054 13.3755V5.57312C11.4054 5.33597 11.3213 5.13439 11.1532 4.96838C10.9852 4.80237 10.7891 4.71937 10.565 4.71937C10.3249 4.71937 10.1248 4.80237 9.96469 4.96838C9.80461 5.13439 9.72458 5.33597 9.72458 5.57312V13.3755Z" fill="#FF6161"/>
</svg>
