<svg width="52" height="48" viewBox="0 0 52 48" fill="none" xmlns="http://www.w3.org/2000/svg">
<path d="M51.6003 25.2001C51.6017 25.0018 51.5519 24.8064 51.4556 24.6329C51.3593 24.4595 51.2198 24.3139 51.0507 24.2101H51.0447L51.0231 24.1981L33.1431 13.6141C33.0659 13.562 32.9858 13.5143 32.9031 13.4713C32.5629 13.2958 32.1856 13.2042 31.8027 13.2042C31.4199 13.2042 31.0426 13.2958 30.7023 13.4713C30.6197 13.5143 30.5395 13.562 30.4623 13.6141L12.5824 24.1981L12.5608 24.2101C12.0143 24.55 11.8468 25.2685 12.1866 25.8149C12.2867 25.9759 12.4246 26.1101 12.5884 26.2057L30.4684 36.7897C30.5459 36.8414 30.626 36.8891 30.7084 36.9325C31.0486 37.1081 31.4259 37.1997 31.8088 37.1997C32.1916 37.1997 32.5689 37.1081 32.9092 36.9325C32.9916 36.8891 33.0717 36.8414 33.1492 36.7897L51.0292 26.2057C51.2047 26.1034 51.3499 25.9565 51.4502 25.7799C51.5506 25.6033 51.6023 25.4032 51.6003 25.2001Z" fill="#1773BC"/>
<path d="M14.6664 18.1332H26.4V28.8888H14.6664V18.1332ZM49.2 7.2V2.27999C49.2282 1.04987 48.2545 0.0294763 47.0244 0H16.5756C15.3455 0.0294763 14.3718 1.04987 14.4 2.27999V7.2L32.4 12L49.2 7.2Z" fill="#1773BC"/>
<path d="M14.3994 7.20007H26.3994V18.0001H14.3994V7.20007Z" fill="#1773BC"/>
<path d="M38.4004 7.19995H26.4004V17.9999L38.4004 28.7999H49.2004V17.9999L38.4004 7.19995Z" fill="#1773BC"/>
<path d="M26.4004 18H38.4004V28.8H26.4004V18Z" fill="#1773BC"/>
<path d="M26.4004 28.7998H38.4004V39.5998H26.4004V28.7998Z" fill="#1773BC"/>
<path d="M14.666 28.8887H26.3996V38.6663H14.666V28.8887Z" fill="#1773BC"/>
<path d="M38.3994 28.7999H49.1994V39.5999H38.3994V28.7999Z" fill="#1773BC"/>
<path d="M51.0504 26.1396L51.0276 26.1516L33.1476 36.2075C33.0696 36.2555 32.9904 36.3011 32.9076 36.3419C32.6039 36.4866 32.2741 36.5682 31.938 36.5819L30.9612 36.0107C30.8786 35.9693 30.7985 35.9232 30.7212 35.8727L12.6012 25.5312H12.5928L12 25.2V45.5567C12.0092 46.9149 13.1174 48.0086 14.4756 48H49.1628C49.1832 48 49.2012 47.9903 49.2228 47.9903C49.5096 47.972 49.7925 47.913 50.0628 47.8151C50.1796 47.7657 50.2923 47.7071 50.4 47.64C50.4804 47.5944 50.6184 47.4948 50.6184 47.4948C50.9215 47.2704 51.1681 46.9784 51.3385 46.642C51.5089 46.3055 51.5985 45.9339 51.5999 45.5568V25.2C51.5997 25.3912 51.5488 25.579 51.4522 25.7441C51.3556 25.9091 51.217 26.0456 51.0504 26.1396Z" fill="url(#paint0_linear_294_1662)"/>
<path opacity="0.5" d="M50.6408 25.1196V26.3676L31.9448 39.24L12.5888 25.5396C12.5888 25.5364 12.5875 25.5334 12.5853 25.5311C12.583 25.5289 12.58 25.5276 12.5768 25.5276L10.8008 24.4596V23.5596L11.5328 23.5476L13.0808 24.4356L13.1168 24.4476L13.2488 24.5316C13.2488 24.5316 31.4407 34.9116 31.4887 34.9356L32.1847 35.3436C32.2447 35.3196 32.3047 35.2956 32.3767 35.2716C32.4127 35.2476 50.4367 25.1076 50.4367 25.1076L50.6408 25.1196Z" fill="#1773BC"/>
<path d="M51.0504 26.1396L51.0276 26.1527L33.1476 36.2087C33.0696 36.2567 32.9904 36.3023 32.9075 36.3431C32.5649 36.5105 32.1885 36.5975 31.8071 36.5975C31.4258 36.5975 31.0494 36.5105 30.7067 36.3431C30.6245 36.3024 30.5444 36.2575 30.4667 36.2087L12.5868 26.1527L12.5652 26.1396C12.3957 26.0477 12.2539 25.912 12.1545 25.7468C12.0551 25.5816 12.0018 25.3928 12 25.2V45.5567C12.0086 46.9147 13.1164 48.0085 14.4743 48H49.1256C50.4835 48.0086 51.5913 46.9148 51.6 45.5569C51.6 45.5568 51.6 45.5569 51.6 45.5569V25.2C51.5998 25.3912 51.5487 25.579 51.4522 25.7441C51.3556 25.9091 51.2169 26.0456 51.0504 26.1396Z" fill="#1490DF"/>
<path opacity="0.1" d="M33.4078 36.0601L33.1402 36.2101C33.0627 36.2594 32.9825 36.3047 32.9002 36.3457C32.6054 36.4904 32.2848 36.5752 31.957 36.5953L38.7598 44.6401L50.6266 47.4997C50.9518 47.254 51.2104 46.931 51.379 46.56L33.4078 36.0601Z" fill="#1773BC"/>
<path opacity="0.05" d="M34.6198 35.3784L33.1402 36.21C33.0627 36.2594 32.9825 36.3047 32.9002 36.3456C32.6054 36.4903 32.2848 36.5752 31.957 36.5952L35.1442 45.3828L50.6302 47.496C50.9311 47.2701 51.1754 46.9773 51.3436 46.6407C51.5119 46.3042 51.5996 45.9331 51.5998 45.5568V45.294L34.6198 35.3784Z" fill="#1773BC"/>
<path d="M14.508 47.9999H49.122C49.6546 48.0026 50.174 47.8344 50.604 47.5199L30.96 36.0132C30.8774 35.9717 30.7973 35.9257 30.72 35.8752L12.6 25.5335H12.5916L12 25.2V45.4871C11.9986 46.8736 13.1215 47.9986 14.508 47.9999C14.508 47.9999 14.508 47.9999 14.508 47.9999Z" fill="#1773BC"/>
<path opacity="0.1" d="M28.8 11.7997V37.3957C28.7979 38.2931 28.2522 39.0998 27.42 39.4357C27.1622 39.5465 26.8846 39.6036 26.604 39.6037H12V10.8001H14.4V9.6001H26.604C27.8163 9.60469 28.7974 10.5874 28.8 11.7997Z" fill="#1773BC"/>
<path opacity="0.2" d="M27.6 12.9995V38.5955C27.603 38.8854 27.5415 39.1723 27.42 39.4355C27.0867 40.2569 26.2905 40.7958 25.404 40.7998H12V10.7999H25.404C25.7522 10.7964 26.0954 10.8833 26.4 11.0519C27.1356 11.4225 27.5997 12.1758 27.6 12.9995Z" fill="#1773BC"/>
<path opacity="0.2" d="M27.6 12.9995V36.1955C27.5941 37.4072 26.6157 38.3894 25.404 38.3999H12V10.7999H25.404C25.7522 10.7964 26.0954 10.8833 26.4 11.0519C27.1356 11.4225 27.5997 12.1758 27.6 12.9995Z" fill="#1773BC"/>
<path opacity="0.2" d="M26.4 12.9996V36.1956C26.3987 37.4093 25.4176 38.3941 24.204 38.4H12V10.8H24.204C25.4175 10.8007 26.4006 11.785 26.4 12.9985C26.4 12.9989 26.4 12.9992 26.4 12.9996Z" fill="#1773BC"/>
<path d="M2.19959 10.8002H24.2004C25.4152 10.8002 26.4 11.785 26.4 12.9998V35.0006C26.4 36.2154 25.4152 37.2001 24.2004 37.2001H2.19959C0.984779 37.2001 0 36.2153 0 35.0006V12.9998C0 11.785 0.984807 10.8002 2.19959 10.8002Z" fill="#1773BC"/>
<path d="M6.87416 20.0256C7.41627 18.8706 8.29135 17.904 9.38697 17.25C10.6003 16.5554 11.9818 16.2091 13.3794 16.2492C14.6747 16.2211 15.9528 16.5495 17.0742 17.1984C18.1285 17.8272 18.9776 18.7484 19.5186 19.8504C20.1076 21.0647 20.4012 22.401 20.3754 23.7504C20.4039 25.1606 20.1019 26.5579 19.4934 27.8304C18.9396 28.9718 18.0635 29.9259 16.9734 30.5748C15.8088 31.2436 14.4832 31.5806 13.1406 31.5492C11.8176 31.5811 10.5113 31.2491 9.36417 30.5892C8.30072 29.9596 7.44091 29.0373 6.88737 27.9324C6.29482 26.7357 5.99772 25.4144 6.02098 24.0792C5.9963 22.681 6.28795 21.2953 6.87416 20.0256ZM9.55255 26.5416C9.8416 27.2718 10.3318 27.9051 10.9661 28.368C11.6123 28.8196 12.386 29.0526 13.1741 29.0328C14.0134 29.066 14.8407 28.8251 15.5309 28.3464C16.1573 27.885 16.6346 27.25 16.9037 26.52C17.2046 25.7048 17.3531 24.8413 17.3417 23.9724C17.351 23.0953 17.2115 22.2229 16.9289 21.3924C16.6794 20.6426 16.2175 19.9815 15.5993 19.4892C14.9264 18.9879 14.1013 18.7336 13.2629 18.7692C12.4578 18.7484 11.6667 18.9832 11.0033 19.44C10.3582 19.9049 9.85876 20.5438 9.56335 21.282C8.90803 22.9742 8.9046 24.8495 9.55374 26.544L9.55255 26.5416Z" fill="white"/>
<path d="M38.3994 7.20007H49.1994V18.0001H38.3994V7.20007Z" fill="#50D9FF"/>
<defs>
<linearGradient id="paint0_linear_294_1662" x1="31.8" y1="25.2" x2="31.8" y2="48" gradientUnits="userSpaceOnUse">
<stop stop-color="#35B8F1"/>
<stop offset="1" stop-color="#28A8EA"/>
</linearGradient>
</defs>
</svg>
