<?xml version="1.0" standalone="no"?>
<!DOCTYPE svg PUBLIC "-//W3C//DTD SVG 20010904//EN"
 "http://www.w3.org/TR/2001/REC-SVG-20010904/DTD/svg10.dtd">
<svg version="1.0" xmlns="http://www.w3.org/2000/svg"
 width="15.000000pt" height="15.000000pt" viewBox="0 0 48.000000 48.000000"
 preserveAspectRatio="xMidYMid meet">

<g transform="translate(0.000000,48.000000) scale(0.100000,-0.100000)"
fill="#FF5722" stroke="none">
<path d="M80 240 l0 -210 160 0 160 0 0 158 0 158 -53 52 -53 52 -107 0 -107
0 0 -210z m265 150 l49 -50 -52 0 -52 0 0 50 c0 28 1 50 3 50 1 0 25 -22 52
-50z m-90 -131 c0 -45 18 -67 58 -71 24 -2 32 -8 32 -23 0 -22 -40 -34 -57
-17 -15 15 -69 -6 -91 -35 -23 -29 -57 -31 -57 -3 0 12 10 25 26 32 33 15 55
68 45 105 -11 38 -3 55 23 51 17 -2 21 -10 21 -39z"/>
</g>
</svg>
