<svg width="18" height="18" viewBox="0 0 18 18" fill="none" xmlns="http://www.w3.org/2000/svg">
<path d="M5.07076 13.8905C5.26302 13.8905 5.43124 13.8224 5.57543 13.6862C5.71963 13.5501 5.79172 13.3778 5.79172 13.1696V8.00267C5.79172 7.79439 5.71963 7.62216 5.57543 7.48598C5.43124 7.3498 5.26302 7.28171 5.07076 7.28171C4.86248 7.28171 4.69025 7.3498 4.55407 7.48598C4.41789 7.62216 4.3498 7.79439 4.3498 8.00267V13.1696C4.3498 13.3778 4.41789 13.5501 4.55407 13.6862C4.69025 13.8224 4.86248 13.8905 5.07076 13.8905ZM8.98798 13.8905C9.19626 13.8905 9.36849 13.8224 9.50467 13.6862C9.64085 13.5501 9.70895 13.3778 9.70895 13.1696V4.85447C9.70895 4.64619 9.64085 4.47397 9.50467 4.33778C9.36849 4.2016 9.19626 4.13351 8.98798 4.13351C8.77971 4.13351 8.60748 4.2016 8.4713 4.33778C8.33511 4.47397 8.26702 4.64619 8.26702 4.85447V13.1696C8.26702 13.3778 8.33511 13.5501 8.4713 13.6862C8.60748 13.8224 8.77971 13.8905 8.98798 13.8905ZM12.9292 13.8905C13.1215 13.8905 13.2897 13.8224 13.4339 13.6862C13.5781 13.5501 13.6502 13.3778 13.6502 13.1696V11.0547C13.6502 10.8465 13.5781 10.6742 13.4339 10.5381C13.2897 10.4019 13.1215 10.3338 12.9292 10.3338C12.721 10.3338 12.5487 10.4019 12.4126 10.5381C12.2764 10.6742 12.2083 10.8465 12.2083 11.0547V13.1696C12.2083 13.3778 12.2764 13.5501 12.4126 13.6862C12.5487 13.8224 12.721 13.8905 12.9292 13.8905ZM1.89853 18C1.38585 18 0.941255 17.8118 0.564753 17.4352C0.188251 17.0587 0 16.6142 0 16.1015V1.92256C0 1.39386 0.188251 0.941255 0.564753 0.564753C0.941255 0.188251 1.38585 0 1.89853 0H16.0774C16.6061 0 17.0587 0.188251 17.4352 0.564753C17.8118 0.941255 18 1.39386 18 1.92256V16.1015C18 16.6142 17.8118 17.0587 17.4352 17.4352C17.0587 17.8118 16.6061 18 16.0774 18H1.89853Z" fill="#1773BC"/>
</svg>
