<svg width="17" height="18" viewBox="0 0 17 18" fill="none" xmlns="http://www.w3.org/2000/svg">
<path d="M12.6286 13.5985C13.0295 13.5985 13.3687 13.4599 13.6463 13.1825C13.9238 12.9051 14.0626 12.5766 14.0626 12.1971C14.0626 11.8175 13.9238 11.4964 13.6463 11.2336C13.3687 10.9708 13.0295 10.8394 12.6286 10.8394C12.2277 10.8394 11.8807 10.9708 11.5878 11.2336C11.2948 11.4964 11.1483 11.8175 11.1483 12.1971C11.1483 12.5766 11.2948 12.9051 11.5878 13.1825C11.8807 13.4599 12.2277 13.5985 12.6286 13.5985ZM12.6054 16.3358C13.1143 16.3358 13.5769 16.2372 13.9932 16.0401C14.4095 15.8431 14.7642 15.5547 15.0571 15.1752C14.6562 14.9708 14.2553 14.8139 13.8544 14.7044C13.4535 14.5949 13.0372 14.5401 12.6054 14.5401C12.1737 14.5401 11.7535 14.5949 11.3449 14.7044C10.9363 14.8139 10.5392 14.9708 10.1537 15.1752C10.4467 15.5547 10.7975 15.8431 11.2061 16.0401C11.6147 16.2372 12.0812 16.3358 12.6054 16.3358ZM12.6517 17.7591C11.449 17.7591 10.4236 17.354 9.57551 16.5438C8.72744 15.7336 8.3034 14.7737 8.3034 13.6642C8.3034 12.5255 8.72744 11.5511 9.57551 10.7409C10.4236 9.93066 11.449 9.52555 12.6517 9.52555C13.839 9.52555 14.8605 9.93066 15.7163 10.7409C16.5721 11.5511 17 12.5255 17 13.6642C17 14.7737 16.5721 15.7336 15.7163 16.5438C14.8605 17.354 13.839 17.7591 12.6517 17.7591ZM7.72517 18H7.51701C7.45533 18 7.37052 17.9781 7.26258 17.9343C5.25805 17.3504 3.54648 16.146 2.12789 14.3212C0.709297 12.4964 0 10.4161 0 8.08029V3.85401C0 3.48905 0.107936 3.15328 0.323809 2.84672C0.539682 2.54015 0.824943 2.32117 1.17959 2.18978L7.07755 0.109489C7.30884 0.0364963 7.52472 0 7.72517 0C7.92562 0 8.1415 0.0364963 8.37279 0.109489L14.2707 2.18978C14.6254 2.32117 14.9145 2.54015 15.1381 2.84672C15.3617 3.15328 15.4735 3.48905 15.4735 3.85401V8.93431C15.0417 8.71533 14.5868 8.54015 14.1088 8.40876C13.6308 8.27737 13.1451 8.21168 12.6517 8.21168C11.0635 8.21168 9.71043 8.74453 8.59252 9.81022C7.4746 10.8759 6.91565 12.1606 6.91565 13.6642C6.91565 14.438 7.09683 15.1861 7.45918 15.9088C7.82154 16.6314 8.31882 17.2409 8.95102 17.7372C8.70431 17.8248 8.48073 17.8905 8.28027 17.9343C8.07982 17.9781 7.89478 18 7.72517 18Z" fill="#1773BC"/>
</svg>
