<svg width="15" height="18" viewBox="0 0 15 18" fill="none" xmlns="http://www.w3.org/2000/svg">
<path d="M3 5.25H9V6.75H3V5.25ZM3 8.25H12V9.75H3V8.25ZM3 11.25H5.2425V12.75H3V11.25Z" fill="white"/>
<path d="M9 2.25L6.75 0V1.5H1.5C1.10218 1.5 0.720644 1.65804 0.43934 1.93934C0.158035 2.22064 0 2.60218 0 3V15C0 15.3978 0.158035 15.7794 0.43934 16.0607C0.720644 16.342 1.10218 16.5 1.5 16.5H4.5V15H1.5V3H6.75V4.5L9 2.25ZM6 15.75L8.25 18V16.5H13.5C13.8978 16.5 14.2794 16.342 14.5607 16.0607C14.842 15.7794 15 15.3978 15 15V3C15 2.60218 14.842 2.22064 14.5607 1.93934C14.2794 1.65804 13.8978 1.5 13.5 1.5H10.5V3H13.5V15H8.25V13.5L6 15.75Z" fill="white"/>
</svg>
