<svg width="50" height="48" viewBox="0 0 50 48" fill="none" xmlns="http://www.w3.org/2000/svg">
<path d="M25.143 27.4286C32.7172 27.4286 38.8573 21.2885 38.8573 13.7143C38.8573 6.14011 32.7172 0 25.143 0C17.5688 0 11.4287 6.14011 11.4287 13.7143C11.4287 21.2885 17.5688 27.4286 25.143 27.4286Z" fill="#1773BC"/>
<path d="M36.5715 38.8573C43.5145 38.8573 49.1429 33.2288 49.1429 26.2858C49.1429 19.3428 43.5145 13.7144 36.5715 13.7144C29.6284 13.7144 24 19.3428 24 26.2858C24 33.2288 29.6284 38.8573 36.5715 38.8573Z" fill="#1773BC"/>
<path d="M26.8569 47.9999C32.2219 47.9999 36.5712 43.6506 36.5712 38.2856C36.5712 32.9205 32.2219 28.5713 26.8569 28.5713C21.4918 28.5713 17.1426 32.9205 17.1426 38.2856C17.1426 43.6506 21.4918 47.9999 26.8569 47.9999Z" fill="#1773BC"/>
<path opacity="0.1" d="M27.4288 12.3773V36.7659C27.4231 37.6134 26.9096 38.3747 26.126 38.6974C25.8764 38.8029 25.6083 38.8573 25.3374 38.8574H17.1545C17.1431 38.6631 17.1431 38.4802 17.1431 38.2859C17.1393 38.0952 17.1469 37.9043 17.1659 37.7145C17.3751 34.0613 19.6257 30.838 22.9831 29.383V27.2573C15.511 26.0732 10.4135 19.056 11.5976 11.5839C11.6058 11.5321 11.6143 11.4804 11.6231 11.4287C11.68 11.0433 11.7601 10.6617 11.8631 10.2859H25.3374C26.4906 10.2903 27.4244 11.2241 27.4288 12.3773Z" fill="#1773BC"/>
<path opacity="0.2" d="M24.1948 11.4285H11.6233C10.3534 18.8871 15.3703 25.9631 22.8289 27.233C23.0548 27.2715 23.2815 27.3043 23.509 27.3313C19.9662 29.0114 17.3845 33.7828 17.165 37.7142C17.146 37.9041 17.1384 38.0949 17.1422 38.2857C17.1422 38.4799 17.1422 38.6628 17.1536 38.8571C17.1742 39.2412 17.2239 39.6233 17.3022 39.9999H24.1936C25.041 39.9943 25.8024 39.4807 26.125 38.6971C26.2306 38.4476 26.285 38.1794 26.285 37.9085V13.5199C26.2807 12.3671 25.3476 11.4335 24.1948 11.4285Z" fill="#1773BC"/>
<path opacity="0.2" d="M24.1947 11.4285H11.6232C10.3535 18.8878 15.3712 25.9641 22.8306 27.2338C22.9832 27.2598 23.1362 27.2831 23.2895 27.3039C19.861 29.1051 17.381 33.8651 17.1661 37.7142H24.1947C25.3461 37.7055 26.2774 36.7742 26.2861 35.6228V13.5199C26.2817 12.3667 25.3479 11.4329 24.1947 11.4285Z" fill="#1773BC"/>
<path opacity="0.2" d="M23.0514 11.4285H11.6228C10.4239 18.4702 14.8363 25.2514 21.76 27.0079C19.1384 30.0032 17.5304 33.7504 17.1657 37.7142H23.0514C24.2047 37.7099 25.1385 36.776 25.1429 35.6228V13.5199C25.1422 12.3651 24.2062 11.4291 23.0514 11.4285Z" fill="#1773BC"/>
<path d="M2.09486 11.4285H23.048C24.205 11.4285 25.1429 12.3664 25.1429 13.5233V34.4765C25.1429 35.6335 24.205 36.5714 23.048 36.5714H2.09486C0.937901 36.5714 0 35.6335 0 34.4765V13.5233C0 12.3664 0.937901 11.4285 2.09486 11.4285Z" fill="#1773BC"/>
<path d="M9.35595 23.7439C8.865 23.4183 8.45495 22.9848 8.15708 22.4765C7.86846 21.9451 7.72461 21.3472 7.73993 20.7428C7.71422 19.9243 7.99042 19.125 8.51592 18.497C9.06814 17.8683 9.78194 17.4027 10.5799 17.1507C11.4894 16.8514 12.4419 16.7039 13.3994 16.7142C14.6584 16.6682 15.9157 16.8442 17.1136 17.2342V19.8628C16.5931 19.5474 16.0262 19.316 15.4336 19.1771C14.7907 19.0194 14.131 18.9403 13.4691 18.9416C12.771 18.916 12.0774 19.0628 11.4496 19.3691C11.2125 19.4713 11.0104 19.6407 10.8683 19.8564C10.7261 20.072 10.6501 20.3245 10.6496 20.5828C10.6477 20.903 10.7707 21.2113 10.9925 21.4422C11.2545 21.7145 11.5644 21.9361 11.9068 22.0959C12.2877 22.2857 12.8592 22.5379 13.6211 22.8525C13.705 22.879 13.7867 22.9119 13.8656 22.9508C14.6155 23.2439 15.3389 23.6006 16.0279 24.0171C16.5497 24.3388 16.9877 24.7799 17.3057 25.304C17.6317 25.898 17.7897 26.5697 17.7628 27.2468C17.8 28.0871 17.543 28.914 17.0359 29.5851C16.5306 30.2021 15.8549 30.6568 15.0931 30.8925C14.197 31.1734 13.2617 31.3092 12.3228 31.2948C11.4803 31.2986 10.6391 31.2298 9.80849 31.0891C9.10715 30.9743 8.4227 30.7732 7.77078 30.4902V27.7188C8.39395 28.1639 9.09015 28.4965 9.82793 28.7017C10.5632 28.9308 11.3276 29.0532 12.0976 29.0651C12.8104 29.1102 13.5218 28.9593 14.1548 28.6285C14.3724 28.5057 14.5526 28.3262 14.6762 28.109C14.7998 27.8918 14.8621 27.6452 14.8565 27.3954C14.858 27.2201 14.8244 27.0462 14.7576 26.8841C14.6909 26.722 14.5924 26.5749 14.468 26.4514C14.1553 26.1445 13.7933 25.8922 13.3971 25.7051C12.94 25.4765 12.2668 25.1752 11.3777 24.8011C10.6703 24.5167 9.99307 24.1626 9.35595 23.7439Z" fill="white"/>
</svg>
