<svg width="21" height="18" viewBox="0 0 21 18" fill="none" xmlns="http://www.w3.org/2000/svg">
<path d="M2.59921 2.16216C2.28605 2.16216 2.02355 2.05856 1.81171 1.85135C1.59987 1.64414 1.49395 1.38739 1.49395 1.08108C1.49395 0.774775 1.59987 0.518018 1.81171 0.310811C2.02355 0.103604 2.28605 0 2.59921 0H18.4045C18.7176 0 18.9801 0.108108 19.192 0.324324C19.4038 0.54054 19.5097 0.801802 19.5097 1.10811C19.5097 1.3964 19.4038 1.64414 19.192 1.85135C18.9801 2.05856 18.7176 2.16216 18.4045 2.16216H2.59921ZM2.73737 18C2.42421 18 2.16171 17.8964 1.94987 17.6892C1.73803 17.482 1.63211 17.2342 1.63211 16.9459V11.3784H1.02421C0.692632 11.3604 0.425526 11.2207 0.222895 10.9595C0.0202631 10.6982 -0.0442105 10.4054 0.0294737 10.0811L1.30053 4.62162C1.35579 4.38739 1.48474 4.18919 1.68737 4.02703C1.89 3.86486 2.12026 3.78378 2.37816 3.78378H18.5979C18.8558 3.78378 19.0861 3.86486 19.2887 4.02703C19.4913 4.18919 19.6203 4.38739 19.6755 4.62162L20.9466 10.0811C21.0203 10.4054 20.9558 10.7027 20.7532 10.973C20.5505 11.2432 20.2926 11.3784 19.9795 11.3784H19.3439V16.9459C19.3439 17.2342 19.238 17.482 19.0262 17.6892C18.8143 17.8964 18.5518 18 18.2387 18C17.9255 18 17.663 17.8964 17.4512 17.6892C17.2393 17.482 17.1334 17.2342 17.1334 16.9459V11.3784H12.74V16.9459C12.74 17.2342 12.6341 17.482 12.4222 17.6892C12.2104 17.8964 11.9479 18 11.6347 18H2.73737ZM3.84263 15.8649H10.5295V11.3784H3.84263V15.8649Z" fill="#1773BC"/>
</svg>
