<svg width="21" height="18" viewBox="0 0 21 18" fill="none" xmlns="http://www.w3.org/2000/svg">
<path d="M2.59921 2.16216C2.28605 2.16216 2.02355 2.05856 1.81171 1.85135C1.59987 1.64414 1.49395 1.38739 1.49395 1.08108C1.49395 0.774775 1.59987 0.518018 1.81171 0.310811C2.02355 0.103604 2.28605 0 2.59921 0H18.4045C18.7176 0 18.9801 0.108108 19.192 0.324324C19.4038 0.54054 19.5097 0.801802 19.5097 1.10811C19.5097 1.3964 19.4038 1.64414 19.192 1.85135C18.9801 2.05856 18.7176 2.16216 18.4045 2.16216H2.59921ZM2.73737 18C2.42421 18 2.16171 17.8964 1.94987 17.6892C1.73803 17.482 1.63211 17.2342 1.63211 16.9459V11.3784H1.02421C0.692632 11.3604 0.425526 11.2207 0.222895 10.9595C0.0202631 10.6982 -0.0442105 10.4054 0.0294737 10.0811L1.30053 4.62162C1.35579 4.38739 1.48474 4.18919 1.68737 4.02703C1.89 3.86486 2.12026 3.78378 2.37816 3.78378H18.5979C18.8558 3.78378 19.0861 3.86486 19.2887 4.02703C19.4913 4.18919 19.6203 4.38739 19.6755 4.62162L20.9466 10.0811C21.0203 10.4054 20.9558 10.7027 20.7532 10.973C20.5505 11.2432 20.2926 11.3784 19.9795 11.3784H19.3439V16.9459C19.3439 17.2342 19.238 17.482 19.0262 17.6892C18.8143 17.8964 18.5518 18 18.2387 18C17.9255 18 17.663 17.8964 17.4512 17.6892C17.2393 17.482 17.1334 17.2342 17.1334 16.9459V11.3784H12.74V16.9459C12.74 17.2342 12.6341 17.482 12.4222 17.6892C12.2104 17.8964 11.9479 18 11.6347 18H2.73737ZM3.84263 15.8649H10.5295V11.3784H3.84263V15.8649Z" fill="#1773BC"/>
<ellipse cx="15.1972" cy="12.163" rx="5.80263" ry="5.67567" fill="white"/>
<path d="M17.0826 13.9591C17.239 13.9591 17.3713 13.905 17.4796 13.7967C17.5878 13.6884 17.642 13.5602 17.642 13.412C17.642 13.2638 17.5878 13.1385 17.4796 13.0359C17.3713 12.9333 17.239 12.882 17.0826 12.882C16.9262 12.882 16.7908 12.9333 16.6766 13.0359C16.5623 13.1385 16.5051 13.2638 16.5051 13.412C16.5051 13.5602 16.5623 13.6884 16.6766 13.7967C16.7908 13.905 16.9262 13.9591 17.0826 13.9591ZM17.0735 15.0277C17.272 15.0277 17.4525 14.9892 17.6149 14.9123C17.7773 14.8354 17.9156 14.7228 18.0299 14.5746C17.8735 14.4948 17.7172 14.4336 17.5608 14.3908C17.4044 14.3481 17.242 14.3267 17.0735 14.3267C16.9051 14.3267 16.7412 14.3481 16.5818 14.3908C16.4224 14.4336 16.2675 14.4948 16.1172 14.5746C16.2314 14.7228 16.3683 14.8354 16.5277 14.9123C16.6871 14.9892 16.869 15.0277 17.0735 15.0277ZM17.0916 15.5834C16.6224 15.5834 16.2224 15.4252 15.8916 15.1089C15.5608 14.7926 15.3953 14.4179 15.3953 13.9848C15.3953 13.5402 15.5608 13.1598 15.8916 12.8435C16.2224 12.5272 16.6224 12.3691 17.0916 12.3691C17.5547 12.3691 17.9532 12.5272 18.2871 12.8435C18.6209 13.1598 18.7878 13.5402 18.7878 13.9848C18.7878 14.4179 18.6209 14.7926 18.2871 15.1089C17.9532 15.4252 17.5547 15.5834 17.0916 15.5834ZM15.1698 15.6774H15.0886C15.0645 15.6774 15.0314 15.6689 14.9893 15.6518C14.2074 15.4238 13.5397 14.9536 12.9863 14.2412C12.4329 13.5288 12.1562 12.7167 12.1562 11.8049V10.155C12.1562 10.0125 12.1984 9.8814 12.2826 9.76172C12.3668 9.64204 12.4781 9.55655 12.6164 9.50526L14.9172 8.69313C15.0074 8.66464 15.0916 8.65039 15.1698 8.65039C15.248 8.65039 15.3322 8.66464 15.4224 8.69313L17.7232 9.50526C17.8615 9.55655 17.9743 9.64204 18.0615 9.76172C18.1487 9.8814 18.1923 10.0125 18.1923 10.155V12.1383C18.0239 12.0528 17.8465 11.9844 17.66 11.9331C17.4735 11.8818 17.2841 11.8562 17.0916 11.8562C16.472 11.8562 15.9442 12.0642 15.5081 12.4802C15.072 12.8962 14.854 13.3978 14.854 13.9848C14.854 14.2868 14.9247 14.5789 15.066 14.861C15.2074 15.1431 15.4014 15.3811 15.648 15.5748C15.5517 15.609 15.4645 15.6347 15.3863 15.6518C15.3081 15.6689 15.2359 15.6774 15.1698 15.6774Z" fill="#1773BC"/>
</svg>
