<svg width="42" height="48" viewBox="0 0 42 48" fill="none" xmlns="http://www.w3.org/2000/svg">
<path d="M3.5 48C2.56667 48 1.75 47.6471 1.05 46.9412C0.35 46.2353 0 45.4118 0 44.4706V9.17647C0 8.23529 0.35 7.41176 1.05 6.70588C1.75 6 2.56667 5.64706 3.5 5.64706H15.575C15.4972 4.19608 16.0028 2.89216 17.0917 1.73529C18.1806 0.578431 19.4833 0 21 0C22.5167 0 23.8194 0.578431 24.9083 1.73529C25.9972 2.89216 26.5028 4.19608 26.425 5.64706H38.5C39.4333 5.64706 40.25 6 40.95 6.70588C41.65 7.41176 42 8.23529 42 9.17647V44.4706C42 45.4118 41.65 46.2353 40.95 46.9412C40.25 47.6471 39.4333 48 38.5 48H3.5ZM21 6.70588C21.5056 6.70588 21.9236 6.53922 22.2542 6.20588C22.5847 5.87255 22.75 5.45098 22.75 4.94118C22.75 4.43137 22.5847 4.0098 22.2542 3.67647C21.9236 3.34314 21.5056 3.17647 21 3.17647C20.4944 3.17647 20.0764 3.34314 19.7458 3.67647C19.4153 4.0098 19.25 4.43137 19.25 4.94118C19.25 5.45098 19.4153 5.87255 19.7458 6.20588C20.0764 6.53922 20.4944 6.70588 21 6.70588ZM3.5 42.2941C5.83333 40.098 8.47778 38.3235 11.4333 36.9706C14.3889 35.6176 17.5778 34.9412 21 34.9412C24.4222 34.9412 27.6111 35.6176 30.5667 36.9706C33.5222 38.3235 36.1667 40.098 38.5 42.2941V9.17647H3.5V42.2941ZM21.1167 30.2941C18.8611 30.2941 16.9556 29.5098 15.4 27.9412C13.8444 26.3726 13.0667 24.451 13.0667 22.1765C13.0667 19.902 13.8444 17.9804 15.4 16.4118C16.9556 14.8431 18.8611 14.0588 21.1167 14.0588C23.3722 14.0588 25.2778 14.8431 26.8333 16.4118C28.3889 17.9804 29.1667 19.902 29.1667 22.1765C29.1667 24.451 28.3889 26.3726 26.8333 27.9412C25.2778 29.5098 23.3722 30.2941 21.1167 30.2941Z" fill="#1773BC"/>
</svg>
