<svg width="43" height="48" viewBox="0 0 43 48" fill="none" xmlns="http://www.w3.org/2000/svg">
<path d="M21.5 28.8C20.8231 28.8 20.2558 28.57 19.7979 28.11C19.34 27.65 19.1111 27.08 19.1111 26.4C19.1111 25.72 19.34 25.15 19.7979 24.69C20.2558 24.23 20.8231 24 21.5 24C22.1769 24 22.7442 24.23 23.2021 24.69C23.66 25.15 23.8889 25.72 23.8889 26.4C23.8889 27.08 23.66 27.65 23.2021 28.11C22.7442 28.57 22.1769 28.8 21.5 28.8ZM11.9444 28.8C11.2676 28.8 10.7002 28.57 10.2424 28.11C9.78449 27.65 9.55556 27.08 9.55556 26.4C9.55556 25.72 9.78449 25.15 10.2424 24.69C10.7002 24.23 11.2676 24 11.9444 24C12.6213 24 13.1887 24.23 13.6465 24.69C14.1044 25.15 14.3333 25.72 14.3333 26.4C14.3333 27.08 14.1044 27.65 13.6465 28.11C13.1887 28.57 12.6213 28.8 11.9444 28.8ZM31.0556 28.8C30.3787 28.8 29.8113 28.57 29.3535 28.11C28.8956 27.65 28.6667 27.08 28.6667 26.4C28.6667 25.72 28.8956 25.15 29.3535 24.69C29.8113 24.23 30.3787 24 31.0556 24C31.7324 24 32.2998 24.23 32.7576 24.69C33.2155 25.15 33.4444 25.72 33.4444 26.4C33.4444 27.08 33.2155 27.65 32.7576 28.11C32.2998 28.57 31.7324 28.8 31.0556 28.8ZM21.5 38.4C20.8231 38.4 20.2558 38.17 19.7979 37.71C19.34 37.25 19.1111 36.68 19.1111 36C19.1111 35.32 19.34 34.75 19.7979 34.29C20.2558 33.83 20.8231 33.6 21.5 33.6C22.1769 33.6 22.7442 33.83 23.2021 34.29C23.66 34.75 23.8889 35.32 23.8889 36C23.8889 36.68 23.66 37.25 23.2021 37.71C22.7442 38.17 22.1769 38.4 21.5 38.4ZM11.9444 38.4C11.2676 38.4 10.7002 38.17 10.2424 37.71C9.78449 37.25 9.55556 36.68 9.55556 36C9.55556 35.32 9.78449 34.75 10.2424 34.29C10.7002 33.83 11.2676 33.6 11.9444 33.6C12.6213 33.6 13.1887 33.83 13.6465 34.29C14.1044 34.75 14.3333 35.32 14.3333 36C14.3333 36.68 14.1044 37.25 13.6465 37.71C13.1887 38.17 12.6213 38.4 11.9444 38.4ZM31.0556 38.4C30.3787 38.4 29.8113 38.17 29.3535 37.71C28.8956 37.25 28.6667 36.68 28.6667 36C28.6667 35.32 28.8956 34.75 29.3535 34.29C29.8113 33.83 30.3787 33.6 31.0556 33.6C31.7324 33.6 32.2998 33.83 32.7576 34.29C33.2155 34.75 33.4444 35.32 33.4444 36C33.4444 36.68 33.2155 37.25 32.7576 37.71C32.2998 38.17 31.7324 38.4 31.0556 38.4ZM3.58333 48C2.62778 48 1.79167 47.64 1.075 46.92C0.358333 46.2 0 45.36 0 44.4V7.2C0 6.24 0.358333 5.4 1.075 4.68C1.79167 3.96 2.62778 3.6 3.58333 3.6H7.46528V0H11.3472V3.6H31.6528V0H35.5347V3.6H39.4167C40.3722 3.6 41.2083 3.96 41.925 4.68C42.6417 5.4 43 6.24 43 7.2V44.4C43 45.36 42.6417 46.2 41.925 46.92C41.2083 47.64 40.3722 48 39.4167 48H3.58333ZM3.58333 44.4H39.4167V18.6H3.58333V44.4Z" fill="white"/>
</svg>
