<svg width="48" height="48" viewBox="0 0 48 48" fill="none" xmlns="http://www.w3.org/2000/svg">
<path d="M17.3255 14.5753C17.2336 14.4774 17.1757 14.3526 17.1603 14.2193C17.145 14.0859 17.173 13.9512 17.2403 13.835C17.2664 13.7897 17.2983 13.7478 17.3351 13.7105L30.1277 0.89813C30.2467 0.778949 30.3887 0.685051 30.5449 0.622069C30.7012 0.559087 30.8686 0.528319 31.037 0.531611C31.2055 0.534903 31.3715 0.572187 31.5252 0.641226C31.6789 0.710265 31.8171 0.809637 31.9314 0.93338C35.685 4.99274 38.3898 9.90784 39.8105 15.251L32.0673 23.9999L20.5517 20.3939C19.9636 18.2216 18.8564 16.2248 17.3255 14.5753Z" fill="#1773BC"/>
<path d="M45.9411 14.9427C45.9026 14.7801 45.8318 14.6269 45.733 14.4922C45.6342 14.3575 45.5094 14.2439 45.3659 14.1584C45.2224 14.0728 45.0632 14.0169 44.8977 13.994C44.7322 13.9711 44.5638 13.9816 44.4025 14.025L20.5498 20.3962C21.185 22.7716 21.1865 25.2719 20.5543 27.648L28.5096 37.558L39.8328 32.8299L44.3962 34.0564C44.5576 34.1001 44.7261 34.1109 44.8917 34.0882C45.0574 34.0655 45.2167 34.0098 45.3604 33.9243C45.5041 33.8388 45.6291 33.7253 45.7281 33.5906C45.8271 33.4559 45.898 33.3026 45.9366 33.1399C47.3254 27.1538 47.3269 20.9294 45.9411 14.9425V14.9427Z" fill="#1773BC"/>
<path d="M20.5539 27.6477C19.9739 29.8144 18.878 31.8085 17.3597 33.4595C17.2464 33.5776 17.1839 33.7354 17.1856 33.899C17.1873 34.0627 17.2531 34.2191 17.3688 34.3349L30.1563 47.1029C30.2752 47.2216 30.4168 47.3151 30.5727 47.3779C30.7285 47.4407 30.8954 47.4714 31.0634 47.4682C31.2314 47.465 31.397 47.428 31.5504 47.3594C31.7038 47.2908 31.8417 47.1919 31.956 47.0688C35.7011 43.0341 38.4049 38.1462 39.8325 32.8296L20.5539 27.6477Z" fill="#1773BC"/>
<path opacity="0.1" d="M26.9992 36.9999V12.4999C26.9976 11.97 26.7864 11.4622 26.4116 11.0875C26.0369 10.7127 25.5291 10.5015 24.9991 10.5H20.5081L17.3341 13.6789C17.2973 13.7162 17.2655 13.7581 17.2393 13.8035C17.1721 13.9196 17.144 14.0543 17.1594 14.1877C17.1747 14.321 17.2326 14.4459 17.3245 14.5437C18.8555 16.1932 19.9627 18.1901 20.5507 20.3625L20.5558 20.3628L20.5488 20.3647C21.1838 22.7401 21.1854 25.2403 20.5534 27.6165C20.3882 28.2345 20.1804 28.8402 19.9314 29.4294C19.3097 30.8999 18.4396 32.2525 17.3592 33.4279C17.2458 33.5461 17.1833 33.7039 17.1851 33.8676C17.1868 34.0313 17.2527 34.1878 17.3685 34.3035L22.0723 39H24.9991C25.5291 38.9985 26.0369 38.7872 26.4117 38.4125C26.7865 38.0377 26.9977 37.5299 26.9992 36.9999Z" fill="#1773BC"/>
<path opacity="0.2" d="M25.4992 38.4998V13.9998C25.4976 13.4699 25.2864 12.9621 24.9116 12.5873C24.5369 12.2126 24.0291 12.0014 23.4991 11.9999H19.0105L17.3341 13.6788C17.2973 13.7161 17.2655 13.7579 17.2393 13.8033C17.1721 13.9195 17.144 14.0542 17.1594 14.1876C17.1747 14.3209 17.2326 14.4457 17.3245 14.5436C18.8555 16.1931 19.9627 18.19 20.5507 20.3624L20.5558 20.3627L20.5488 20.3646C21.1838 22.74 21.1854 25.2402 20.5534 27.6164C20.3882 28.2343 20.1804 28.8401 19.9314 29.4293C19.3097 30.8998 18.4396 32.2524 17.3592 33.4278C17.2458 33.546 17.1833 33.7038 17.1851 33.8675C17.1868 34.0312 17.2527 34.1877 17.3685 34.3034L23.5728 40.4981C24.0896 40.4776 24.5785 40.2583 24.9374 39.8859C25.2964 39.5136 25.4977 39.017 25.4992 38.4998Z" fill="#1773BC"/>
<path opacity="0.2" d="M25.4992 35.4998V13.9998C25.4976 13.4699 25.2864 12.9621 24.9116 12.5873C24.5369 12.2126 24.0291 12.0014 23.4991 11.9999H19.0105L17.3341 13.6788C17.2973 13.7161 17.2655 13.7579 17.2393 13.8033C17.1721 13.9195 17.144 14.0542 17.1594 14.1876C17.1747 14.3209 17.2326 14.4457 17.3245 14.5436C18.8555 16.1931 19.9627 18.19 20.5507 20.3624L20.5558 20.3627L20.5488 20.3646C21.1838 22.74 21.1854 25.2402 20.5534 27.6164C20.3882 28.2343 20.1804 28.8401 19.9314 29.4293C19.3097 30.8998 18.4396 32.2524 17.3592 33.4278C17.2458 33.546 17.1833 33.7038 17.1851 33.8675C17.1868 34.0312 17.2527 34.1877 17.3685 34.3034L20.5702 37.4999H23.4993C24.0292 37.4983 24.537 37.2871 24.9117 36.9123C25.2865 36.5375 25.4977 36.0297 25.4992 35.4998Z" fill="#1773BC"/>
<path opacity="0.2" d="M23.9992 35.4998V13.9998C23.9976 13.4699 23.7864 12.9621 23.4116 12.5873C23.0369 12.2126 22.5291 12.0014 21.9991 11.9999H19.0105L17.3341 13.6788C17.2973 13.7161 17.2655 13.7579 17.2393 13.8033C17.1721 13.9195 17.144 14.0542 17.1594 14.1876C17.1747 14.3209 17.2326 14.4457 17.3245 14.5436C18.8555 16.1931 19.9627 18.19 20.5507 20.3624L20.5558 20.3627L20.5488 20.3646C21.1838 22.74 21.1854 25.2402 20.5534 27.6164C20.3882 28.2343 20.1804 28.8401 19.9314 29.4293C19.3097 30.8998 18.4396 32.2524 17.3592 33.4278C17.2458 33.546 17.1833 33.7038 17.1851 33.8675C17.1868 34.0312 17.2527 34.1877 17.3685 34.3034L20.5702 37.4999H21.9993C22.5292 37.4983 23.037 37.2871 23.4117 36.9123C23.7865 36.5375 23.9977 36.0297 23.9992 35.4998Z" fill="#1773BC"/>
<path d="M1.99995 11.9999H22C22.5305 11.9999 23.0392 12.2106 23.4142 12.5856C23.7893 12.9607 24 13.4694 24 13.9998V33.9999C24 34.5303 23.7893 35.039 23.4142 35.4141C23.0392 35.7892 22.5305 35.9999 22 35.9999H1.99995C1.46953 35.9999 0.960835 35.7892 0.585772 35.4141C0.210708 35.039 0 34.5303 0 33.9999L0 13.9998C0 13.4694 0.210708 12.9607 0.585772 12.5856C0.960835 12.2106 1.46953 11.9999 1.99995 11.9999Z" fill="#1773BC"/>
<path d="M11.7393 22.9016C11.8792 23.1901 11.9913 23.4913 12.074 23.8011H12.1055C12.181 23.4972 12.2897 23.2025 12.4298 22.9224L15.4637 17.2082C15.5772 16.9943 15.7469 16.8154 15.9544 16.6906C16.162 16.5658 16.3996 16.4999 16.6418 16.4999C16.8757 16.4999 17.1054 16.5614 17.3081 16.6782C17.5107 16.7951 17.679 16.9631 17.7962 17.1656C17.9133 17.368 17.9752 17.5977 17.9756 17.8316C17.9759 18.0655 17.9148 18.2954 17.7983 18.4982L13.6007 25.8044C13.4845 26.0066 13.4234 26.2357 13.4234 26.4689V30.1662C13.4233 30.5199 13.2828 30.8592 13.0327 31.1093C12.7825 31.3594 12.4433 31.4999 12.0896 31.4999H11.8179C11.4642 31.4999 11.1249 31.3594 10.8748 31.1092C10.6246 30.8591 10.4841 30.5198 10.4841 30.1661V26.5124C10.4841 26.2847 10.4258 26.0608 10.3148 25.862L6.19472 18.4841C6.08133 18.2811 6.02299 18.052 6.02547 17.8195C6.02795 17.5869 6.09116 17.3591 6.20885 17.1586C6.32654 16.9581 6.49461 16.7918 6.69639 16.6762C6.89817 16.5607 7.12665 16.4999 7.35917 16.4999H7.62137C7.86616 16.4999 8.10624 16.5672 8.31531 16.6945C8.52438 16.8219 8.69437 17.0043 8.80667 17.2218L11.7393 22.9016Z" fill="white"/>
</svg>
